<svg width="200" height="200" viewBox="0 0 200 200" fill="none" xmlns="http://www.w3.org/2000/svg">
<g filter="url(#filter0_i_1_11)">
<rect width="200" height="200" fill="#2C2C2C"/>
</g>
<path d="M59.9091 88.7273C59.9091 93.6364 59.0227 97.8788 57.25 101.455C55.4773 105.03 53.0455 107.788 49.9545 109.727C46.8636 111.667 43.3333 112.636 39.3636 112.636C35.3939 112.636 31.8636 111.667 28.7727 109.727C25.6818 107.788 23.25 105.03 21.4773 101.455C19.7045 97.8788 18.8182 93.6364 18.8182 88.7273C18.8182 83.8182 19.7045 79.5758 21.4773 76C23.25 72.4242 25.6818 69.6667 28.7727 67.7273C31.8636 65.7879 35.3939 64.8182 39.3636 64.8182C43.3333 64.8182 46.8636 65.7879 49.9545 67.7273C53.0455 69.6667 55.4773 72.4242 57.25 76C59.0227 79.5758 59.9091 83.8182 59.9091 88.7273ZM54.4545 88.7273C54.4545 84.697 53.7803 81.2955 52.4318 78.5227C51.0985 75.75 49.2879 73.6515 47 72.2273C44.7273 70.803 42.1818 70.0909 39.3636 70.0909C36.5455 70.0909 33.9924 70.803 31.7045 72.2273C29.4318 73.6515 27.6212 75.75 26.2727 78.5227C24.9394 81.2955 24.2727 84.697 24.2727 88.7273C24.2727 92.7576 24.9394 96.1591 26.2727 98.9318C27.6212 101.705 29.4318 103.803 31.7045 105.227C33.9924 106.652 36.5455 107.364 39.3636 107.364C42.1818 107.364 44.7273 106.652 47 105.227C49.2879 103.803 51.0985 101.705 52.4318 98.9318C53.7803 96.1591 54.4545 92.7576 54.4545 88.7273ZM69.6307 112.364C68.5095 112.364 67.5473 111.962 66.7443 111.159C65.9413 110.356 65.5398 109.394 65.5398 108.273C65.5398 107.152 65.9413 106.189 66.7443 105.386C67.5473 104.583 68.5095 104.182 69.6307 104.182C70.7519 104.182 71.714 104.583 72.517 105.386C73.3201 106.189 73.7216 107.152 73.7216 108.273C73.7216 109.015 73.5322 109.697 73.1534 110.318C72.7898 110.939 72.2973 111.439 71.6761 111.818C71.0701 112.182 70.3883 112.364 69.6307 112.364ZM84.0739 112V65.4545H112.165V70.4545H89.7102V86.1818H110.71V91.1818H89.7102V107H112.528V112H84.0739ZM125.506 112.364C124.384 112.364 123.422 111.962 122.619 111.159C121.816 110.356 121.415 109.394 121.415 108.273C121.415 107.152 121.816 106.189 122.619 105.386C123.422 104.583 124.384 104.182 125.506 104.182C126.627 104.182 127.589 104.583 128.392 105.386C129.195 106.189 129.597 107.152 129.597 108.273C129.597 109.015 129.407 109.697 129.028 110.318C128.665 110.939 128.172 111.439 127.551 111.818C126.945 112.182 126.263 112.364 125.506 112.364ZM179.222 88.7273C179.222 93.6364 178.335 97.8788 176.562 101.455C174.79 105.03 172.358 107.788 169.267 109.727C166.176 111.667 162.646 112.636 158.676 112.636C154.706 112.636 151.176 111.667 148.085 109.727C144.994 107.788 142.563 105.03 140.79 101.455C139.017 97.8788 138.131 93.6364 138.131 88.7273C138.131 83.8182 139.017 79.5758 140.79 76C142.563 72.4242 144.994 69.6667 148.085 67.7273C151.176 65.7879 154.706 64.8182 158.676 64.8182C162.646 64.8182 166.176 65.7879 169.267 67.7273C172.358 69.6667 174.79 72.4242 176.562 76C178.335 79.5758 179.222 83.8182 179.222 88.7273ZM173.767 88.7273C173.767 84.697 173.093 81.2955 171.744 78.5227C170.411 75.75 168.6 73.6515 166.312 72.2273C164.04 70.803 161.494 70.0909 158.676 70.0909C155.858 70.0909 153.305 70.803 151.017 72.2273C148.744 73.6515 146.934 75.75 145.585 78.5227C144.252 81.2955 143.585 84.697 143.585 88.7273C143.585 92.7576 144.252 96.1591 145.585 98.9318C146.934 101.705 148.744 103.803 151.017 105.227C153.305 106.652 155.858 107.364 158.676 107.364C161.494 107.364 164.04 106.652 166.312 105.227C168.6 103.803 170.411 101.705 171.744 98.9318C173.093 96.1591 173.767 92.7576 173.767 88.7273Z" fill="#EFEEEE"/>
<defs>
<filter id="filter0_i_1_11" x="0" y="0" width="200" height="204" filterUnits="userSpaceOnUse" color-interpolation-filters="sRGB">
<feFlood flood-opacity="0" result="BackgroundImageFix"/>
<feBlend mode="normal" in="SourceGraphic" in2="BackgroundImageFix" result="shape"/>
<feColorMatrix in="SourceAlpha" type="matrix" values="0 0 0 0 0 0 0 0 0 0 0 0 0 0 0 0 0 0 127 0" result="hardAlpha"/>
<feOffset dy="4"/>
<feGaussianBlur stdDeviation="2"/>
<feComposite in2="hardAlpha" operator="arithmetic" k2="-1" k3="1"/>
<feColorMatrix type="matrix" values="0 0 0 0 0.335553 0 0 0 0 0.732372 0 0 0 0 0.246471 0 0 0 1 0"/>
<feBlend mode="normal" in2="shape" result="effect1_innerShadow_1_11"/>
</filter>
</defs>
</svg>
